<?xml version="1.0" encoding="UTF-8"?>
<svg width="700pt" height="700pt" version="1.1" viewBox="0 0 700 700" xmlns="http://www.w3.org/2000/svg" xmlns:xlink="http://www.w3.org/1999/xlink">
 <defs>
  <symbol id="v" overflow="visible">
   <path d="m2.2656-0.14062c-0.11719 0.0625-0.24219 0.10938-0.375 0.14062-0.125 0.03125-0.25781 0.046875-0.39062 0.046875-0.40625 0-0.73047-0.11328-0.96875-0.34375-0.24219-0.22656-0.35938-0.53906-0.35938-0.9375 0-0.38281 0.11719-0.69141 0.35938-0.92188 0.23828-0.22656 0.5625-0.34375 0.96875-0.34375 0.13281 0 0.26562 0.015625 0.39062 0.046875 0.13281 0.03125 0.25781 0.074219 0.375 0.125v0.51562c-0.125-0.082031-0.24609-0.14062-0.35938-0.17188-0.11719-0.039063-0.23438-0.0625-0.35938-0.0625-0.21875 0-0.39844 0.074219-0.53125 0.21875-0.125 0.14844-0.1875 0.34375-0.1875 0.59375 0 0.26172 0.0625 0.46484 0.1875 0.60938 0.13281 0.14844 0.3125 0.21875 0.53125 0.21875 0.125 0 0.24219-0.019531 0.35938-0.0625 0.11328-0.039062 0.23438-0.097656 0.35938-0.17188z"/>
  </symbol>
  <symbol id="c" overflow="visible">
   <path d="m1.6562-1.3438c-0.054688-0.019531-0.10547-0.035156-0.15625-0.046875-0.054688-0.007813-0.10547-0.015625-0.15625-0.015625-0.14844 0-0.26172 0.046875-0.34375 0.14062-0.085938 0.09375-0.125 0.23438-0.125 0.42188v0.84375h-0.59375v-1.8438h0.59375v0.29688c0.070312-0.11328 0.15625-0.19531 0.25-0.25 0.10156-0.0625 0.22266-0.09375 0.35938-0.09375h0.0625c0.03125 0 0.066406 0.007813 0.10938 0.015625z"/>
  </symbol>
  <symbol id="a" overflow="visible">
   <path d="m2.125-0.92188v0.15625h-1.375c0.007812 0.14844 0.054688 0.25781 0.14062 0.32812 0.09375 0.0625 0.21094 0.09375 0.35938 0.09375 0.125 0 0.25-0.015625 0.375-0.046875 0.13281-0.039063 0.26953-0.097656 0.40625-0.17188v0.45312c-0.13672 0.054688-0.27734 0.089844-0.42188 0.10938-0.13672 0.03125-0.27344 0.046875-0.40625 0.046875-0.33594 0-0.59375-0.082031-0.78125-0.25-0.1875-0.17578-0.28125-0.41406-0.28125-0.71875 0-0.30078 0.085937-0.53516 0.26562-0.70312 0.1875-0.17578 0.44141-0.26562 0.76562-0.26562 0.28906 0 0.51953 0.089844 0.6875 0.26562 0.17578 0.17969 0.26562 0.41406 0.26562 0.70312zm-0.60938-0.20312c0-0.11328-0.03125-0.20312-0.09375-0.26562-0.0625-0.070313-0.14844-0.10938-0.25-0.10938-0.11719 0-0.21094 0.03125-0.28125 0.09375-0.074219 0.0625-0.12109 0.15625-0.14062 0.28125z"/>
  </symbol>
  <symbol id="m" overflow="visible">
   <path d="m1.1094-0.82812c-0.125 0-0.21875 0.023437-0.28125 0.0625-0.0625 0.042969-0.09375 0.10547-0.09375 0.1875 0 0.074219 0.023437 0.13281 0.078125 0.17188 0.050781 0.042969 0.11719 0.0625 0.20312 0.0625 0.11328 0 0.20703-0.035156 0.28125-0.10938 0.082031-0.082031 0.125-0.1875 0.125-0.3125v-0.0625zm0.90625-0.21875v1.0469h-0.59375v-0.28125c-0.085937 0.11719-0.17969 0.19922-0.28125 0.25-0.09375 0.050781-0.21094 0.078125-0.34375 0.078125-0.19922 0-0.35938-0.050781-0.48438-0.15625-0.11719-0.11328-0.17188-0.25781-0.17188-0.4375 0-0.21875 0.070313-0.37891 0.21875-0.48438 0.15625-0.10156 0.39062-0.15625 0.70312-0.15625h0.35938v-0.046875c0-0.09375-0.039063-0.16016-0.10938-0.20312-0.074219-0.039062-0.1875-0.0625-0.34375-0.0625-0.13672 0-0.25781 0.015625-0.35938 0.046875-0.10547 0.023437-0.20312 0.058594-0.29688 0.10938v-0.45312c0.125-0.03125 0.25-0.050781 0.375-0.0625 0.125-0.019531 0.25-0.03125 0.375-0.03125 0.33203 0 0.57031 0.070313 0.71875 0.20312 0.15625 0.125 0.23438 0.33984 0.23438 0.64062z"/>
  </symbol>
  <symbol id="b" overflow="visible">
   <path d="m0.92188-2.375v0.53125h0.60938v0.42188h-0.60938v0.78125c0 0.085937 0.015625 0.14062 0.046875 0.17188 0.039062 0.03125 0.11328 0.046875 0.21875 0.046875h0.29688v0.42188h-0.5c-0.24219 0-0.40625-0.046875-0.5-0.14062-0.09375-0.10156-0.14062-0.26953-0.14062-0.5v-0.78125h-0.29688v-0.42188h0.29688v-0.53125z"/>
  </symbol>
  <symbol id="l" overflow="visible">
   <path d="m1.5469-1.5781v-0.98438h0.57812v2.5625h-0.57812v-0.26562c-0.085937 0.10547-0.17969 0.18359-0.28125 0.23438-0.09375 0.050781-0.20312 0.078125-0.32812 0.078125-0.23047 0-0.41797-0.085938-0.5625-0.26562-0.14844-0.1875-0.21875-0.42188-0.21875-0.70312s0.070312-0.50781 0.21875-0.6875c0.14453-0.1875 0.33203-0.28125 0.5625-0.28125 0.125 0 0.23438 0.027344 0.32812 0.078125 0.10156 0.054688 0.19531 0.13281 0.28125 0.23438zm-0.39062 1.2031c0.125 0 0.21875-0.046875 0.28125-0.14062 0.070312-0.09375 0.10938-0.22656 0.10938-0.40625 0-0.17578-0.039063-0.3125-0.10938-0.40625-0.0625-0.09375-0.15625-0.14062-0.28125-0.14062s-0.22656 0.046875-0.29688 0.14062c-0.0625 0.09375-0.09375 0.23047-0.09375 0.40625 0 0.17969 0.03125 0.3125 0.09375 0.40625 0.070313 0.09375 0.17188 0.14062 0.29688 0.14062z"/>
  </symbol>
  <symbol id="k" overflow="visible">
   <path d="m1.2656-0.375c0.125 0 0.21875-0.046875 0.28125-0.14062 0.070313-0.09375 0.10938-0.22656 0.10938-0.40625 0-0.17578-0.039062-0.3125-0.10938-0.40625-0.0625-0.09375-0.15625-0.14062-0.28125-0.14062s-0.22656 0.046875-0.29688 0.14062c-0.0625 0.09375-0.09375 0.23047-0.09375 0.40625 0 0.17969 0.03125 0.3125 0.09375 0.40625 0.070312 0.09375 0.17188 0.14062 0.29688 0.14062zm-0.39062-1.2031c0.082031-0.10156 0.17188-0.17969 0.26562-0.23438 0.10156-0.050781 0.21875-0.078125 0.34375-0.078125 0.22656 0 0.41406 0.09375 0.5625 0.28125 0.14453 0.17969 0.21875 0.40625 0.21875 0.6875s-0.074219 0.51562-0.21875 0.70312c-0.14844 0.17969-0.33594 0.26562-0.5625 0.26562-0.125 0-0.24219-0.027344-0.34375-0.078125-0.09375-0.050781-0.18359-0.12891-0.26562-0.23438v0.26562h-0.59375v-2.5625h0.59375z"/>
  </symbol>
  <symbol id="j" overflow="visible">
   <path d="m0.046875-1.8438h0.57812l0.5 1.25 0.42188-1.25h0.59375l-0.78125 2.0156c-0.074219 0.20703-0.16406 0.35156-0.26562 0.4375-0.10547 0.082031-0.24609 0.125-0.42188 0.125h-0.32812v-0.39062h0.17188c0.10156 0 0.17578-0.015625 0.21875-0.046875 0.050781-0.03125 0.085937-0.089844 0.10938-0.17188l0.015625-0.046875z"/>
  </symbol>
  <symbol id="i" overflow="visible">
   <path d="m1.4375-2.0469c-0.19922 0-0.35156 0.074219-0.45312 0.21875-0.10547 0.14844-0.15625 0.34375-0.15625 0.59375 0 0.26172 0.050781 0.46484 0.15625 0.60938 0.10156 0.14844 0.25391 0.21875 0.45312 0.21875 0.1875 0 0.33203-0.070312 0.4375-0.21875 0.11328-0.14453 0.17188-0.34766 0.17188-0.60938 0-0.25-0.058594-0.44531-0.17188-0.59375-0.10547-0.14453-0.25-0.21875-0.4375-0.21875zm0-0.45312c0.39453 0 0.70312 0.11719 0.92188 0.34375 0.22656 0.21875 0.34375 0.52734 0.34375 0.92188 0 0.40625-0.11719 0.72656-0.34375 0.95312-0.21875 0.21875-0.52734 0.32812-0.92188 0.32812-0.39844 0-0.71094-0.10938-0.9375-0.32812-0.21875-0.22656-0.32812-0.54688-0.32812-0.95312 0-0.39453 0.10938-0.70312 0.32812-0.92188 0.22656-0.22656 0.53906-0.34375 0.9375-0.34375z"/>
  </symbol>
  <symbol id="u" overflow="visible">
   <path d="m0.875-0.26562v0.96875h-0.59375v-2.5469h0.59375v0.26562c0.082031-0.10156 0.17188-0.17969 0.26562-0.23438 0.10156-0.050781 0.21875-0.078125 0.34375-0.078125 0.22656 0 0.41406 0.09375 0.5625 0.28125 0.14453 0.17969 0.21875 0.40625 0.21875 0.6875s-0.074219 0.51562-0.21875 0.70312c-0.14844 0.17969-0.33594 0.26562-0.5625 0.26562-0.125 0-0.24219-0.027344-0.34375-0.078125-0.09375-0.050781-0.18359-0.12891-0.26562-0.23438zm0.39062-1.2031c-0.125 0-0.22656 0.046875-0.29688 0.14062-0.0625 0.09375-0.09375 0.23047-0.09375 0.40625 0 0.17969 0.03125 0.3125 0.09375 0.40625 0.070312 0.09375 0.17188 0.14062 0.29688 0.14062s0.21875-0.046875 0.28125-0.14062c0.070313-0.09375 0.10938-0.22656 0.10938-0.40625 0-0.17578-0.039062-0.3125-0.10938-0.40625-0.0625-0.09375-0.15625-0.14062-0.28125-0.14062z"/>
  </symbol>
  <symbol id="h" overflow="visible">
   <path d="m0.28125-1.8438h0.59375v1.8438h-0.59375zm0-0.71875h0.59375v0.48438h-0.59375z"/>
  </symbol>
  <symbol id="e" overflow="visible">
   <path d="m2-1.5469c0.070312-0.10156 0.16016-0.1875 0.26562-0.25 0.10156-0.0625 0.21094-0.09375 0.32812-0.09375 0.21875 0 0.37891 0.070313 0.48438 0.20312 0.11328 0.125 0.17188 0.3125 0.17188 0.5625v1.125h-0.59375v-0.96875-0.03125-0.078125c0-0.125-0.023438-0.21094-0.0625-0.26562-0.03125-0.0625-0.089844-0.09375-0.17188-0.09375-0.11719 0-0.20312 0.046875-0.26562 0.14062-0.0625 0.085937-0.09375 0.21484-0.09375 0.39062v0.90625h-0.59375v-0.96875c0-0.19531-0.023438-0.32031-0.0625-0.375-0.03125-0.0625-0.089844-0.09375-0.17188-0.09375-0.11719 0-0.20312 0.046875-0.26562 0.14062-0.0625 0.085937-0.09375 0.21484-0.09375 0.39062v0.90625h-0.59375v-1.8438h0.59375v0.26562c0.070312-0.10156 0.15625-0.17969 0.25-0.23438 0.09375-0.050781 0.19531-0.078125 0.3125-0.078125 0.125 0 0.23438 0.03125 0.32812 0.09375 0.10156 0.0625 0.17969 0.14844 0.23438 0.25z"/>
  </symbol>
  <symbol id="g" overflow="visible">
   <path d="m0.26562-0.71875v-1.125h0.59375v0.1875 0.375 0.29688 0.32812c0.007813 0.0625 0.023437 0.10938 0.046875 0.14062 0.019531 0.03125 0.050781 0.058594 0.09375 0.078125 0.039062 0.023438 0.085938 0.03125 0.14062 0.03125 0.11328 0 0.20703-0.046875 0.28125-0.14062 0.070313-0.09375 0.10938-0.22266 0.10938-0.39062v-0.90625h0.59375v1.8438h-0.59375v-0.26562c-0.09375 0.10547-0.19531 0.18359-0.29688 0.23438-0.09375 0.050781-0.19922 0.078125-0.3125 0.078125-0.21875 0-0.38672-0.0625-0.5-0.1875-0.10547-0.13281-0.15625-0.32812-0.15625-0.57812z"/>
  </symbol>
  <symbol id="t" overflow="visible">
   <path d="m1.7188-1.7812v0.4375c-0.125-0.050781-0.24609-0.085938-0.35938-0.10938-0.11719-0.03125-0.22656-0.046875-0.32812-0.046875-0.11719 0-0.19922 0.015625-0.25 0.046875-0.054688 0.03125-0.078125 0.074219-0.078125 0.125 0 0.054687 0.015625 0.089844 0.046875 0.10938 0.039062 0.023438 0.11719 0.042969 0.23438 0.0625l0.09375 0.015625c0.30078 0.03125 0.50391 0.09375 0.60938 0.1875 0.10156 0.085937 0.15625 0.21875 0.15625 0.40625 0 0.19922-0.074219 0.35156-0.21875 0.45312-0.14844 0.09375-0.35938 0.14062-0.64062 0.14062-0.125 0-0.25781-0.011719-0.39062-0.03125-0.125-0.019531-0.25781-0.046875-0.39062-0.078125v-0.45312c0.11328 0.054687 0.23438 0.09375 0.35938 0.125s0.25 0.046875 0.375 0.046875c0.11328 0 0.19531-0.015625 0.25-0.046875 0.0625-0.03125 0.09375-0.078125 0.09375-0.14062 0-0.050781-0.023438-0.085938-0.0625-0.10938-0.03125-0.03125-0.10938-0.054687-0.23438-0.078125h-0.09375c-0.27344-0.039062-0.46094-0.10156-0.5625-0.1875-0.10547-0.09375-0.15625-0.22656-0.15625-0.40625 0-0.19531 0.066406-0.34375 0.20312-0.4375 0.13281-0.09375 0.33594-0.14062 0.60938-0.14062 0.11328 0 0.22656 0.011719 0.34375 0.03125 0.125 0.011719 0.25391 0.039063 0.39062 0.078125z"/>
  </symbol>
  <symbol id="f" overflow="visible">
   <path d="m0.3125-2.4531h1.0469c0.3125 0 0.55078 0.070313 0.71875 0.20312 0.16406 0.13672 0.25 0.33594 0.25 0.59375 0 0.26172-0.085937 0.46094-0.25 0.59375-0.16797 0.13672-0.40625 0.20312-0.71875 0.20312h-0.42188v0.85938h-0.625zm0.625 0.45312v0.6875h0.35938c0.125 0 0.21875-0.03125 0.28125-0.09375 0.070313-0.0625 0.10938-0.14453 0.10938-0.25 0-0.11328-0.039062-0.19531-0.10938-0.25-0.0625-0.0625-0.15625-0.09375-0.28125-0.09375z"/>
  </symbol>
  <symbol id="s" overflow="visible">
   <path d="m1.5-2.5625v0.39062h-0.32812c-0.085937 0-0.14062 0.015625-0.17188 0.046875-0.03125 0.023438-0.046875 0.074219-0.046875 0.15625v0.125h0.5v0.42188h-0.5v1.4219h-0.59375v-1.4219h-0.29688v-0.42188h0.29688v-0.125c0-0.20703 0.050781-0.35938 0.15625-0.45312 0.11328-0.09375 0.28906-0.14062 0.53125-0.14062z"/>
  </symbol>
  <symbol id="d" overflow="visible">
   <path d="m1.1562-1.4688c-0.125 0-0.22656 0.046875-0.29688 0.14062-0.0625 0.09375-0.09375 0.23047-0.09375 0.40625 0 0.17969 0.03125 0.3125 0.09375 0.40625 0.070313 0.09375 0.17188 0.14062 0.29688 0.14062 0.13281 0 0.23438-0.046875 0.29688-0.14062 0.070313-0.09375 0.10938-0.22656 0.10938-0.40625 0-0.17578-0.039062-0.3125-0.10938-0.40625-0.0625-0.09375-0.16406-0.14062-0.29688-0.14062zm0-0.42188c0.32031 0 0.57031 0.089844 0.75 0.26562 0.17578 0.16797 0.26562 0.40234 0.26562 0.70312 0 0.30469-0.089844 0.54297-0.26562 0.71875-0.17969 0.16797-0.42969 0.25-0.75 0.25-0.3125 0-0.5625-0.082031-0.75-0.25-0.17969-0.17578-0.26562-0.41406-0.26562-0.71875 0-0.30078 0.085937-0.53516 0.26562-0.70312 0.1875-0.17578 0.4375-0.26562 0.75-0.26562z"/>
  </symbol>
  <symbol id="r" overflow="visible">
   <path d="m2.1406-1.125v1.125h-0.59375v-0.85938c0-0.15625-0.007813-0.26562-0.015625-0.32812 0-0.0625-0.011719-0.10938-0.03125-0.14062-0.023438-0.03125-0.054688-0.054687-0.09375-0.078125-0.042969-0.019531-0.089844-0.03125-0.14062-0.03125-0.125 0-0.22656 0.046875-0.29688 0.14062-0.0625 0.09375-0.09375 0.22656-0.09375 0.39062v0.90625h-0.59375v-2.5625h0.59375v0.98438c0.082031-0.10156 0.17578-0.17969 0.28125-0.23438 0.10156-0.050781 0.21094-0.078125 0.32812-0.078125 0.21875 0 0.37891 0.070313 0.48438 0.20312 0.11328 0.125 0.17188 0.3125 0.17188 0.5625z"/>
  </symbol>
  <symbol id="q" overflow="visible">
   <path d="m0.3125-2.4531h0.70312l0.89062 1.6875v-1.6875h0.60938v2.4531h-0.70312l-0.90625-1.6875v1.6875h-0.59375z"/>
  </symbol>
  <symbol id="p" overflow="visible">
   <path d="m2.1406-1.125v1.125h-0.59375v-0.85938c0-0.15625-0.007813-0.26562-0.015625-0.32812 0-0.0625-0.011719-0.10938-0.03125-0.14062-0.023438-0.03125-0.054688-0.054687-0.09375-0.078125-0.042969-0.019531-0.089844-0.03125-0.14062-0.03125-0.125 0-0.22656 0.046875-0.29688 0.14062-0.0625 0.09375-0.09375 0.22656-0.09375 0.39062v0.90625h-0.59375v-1.8438h0.59375v0.26562c0.082031-0.10156 0.17578-0.17969 0.28125-0.23438 0.10156-0.050781 0.21094-0.078125 0.32812-0.078125 0.21875 0 0.37891 0.070313 0.48438 0.20312 0.11328 0.125 0.17188 0.3125 0.17188 0.5625z"/>
  </symbol>
  <symbol id="o" overflow="visible">
   <path d="m0.28125-1.8438h0.59375v1.8125c0 0.25-0.0625 0.4375-0.1875 0.5625-0.11719 0.13281-0.28906 0.20312-0.51562 0.20312h-0.28125v-0.39062h0.09375c0.11328 0 0.19141-0.027344 0.23438-0.078125 0.039062-0.054687 0.0625-0.15234 0.0625-0.29688zm0-0.71875h0.59375v0.48438h-0.59375z"/>
  </symbol>
  <symbol id="n" overflow="visible">
   <path d="m1.7812-1.7812v0.46875c-0.085938-0.050781-0.16797-0.085938-0.25-0.10938-0.085938-0.03125-0.16797-0.046875-0.25-0.046875-0.16797 0-0.29688 0.046875-0.39062 0.14062-0.085937 0.09375-0.125 0.23047-0.125 0.40625 0 0.17969 0.039063 0.3125 0.125 0.40625 0.09375 0.09375 0.22266 0.14062 0.39062 0.14062 0.09375 0 0.17969-0.007812 0.26562-0.03125 0.082031-0.03125 0.16016-0.070312 0.23438-0.125v0.48438c-0.09375 0.03125-0.19531 0.050781-0.29688 0.0625-0.09375 0.019531-0.1875 0.03125-0.28125 0.03125-0.33594 0-0.59375-0.082031-0.78125-0.25-0.1875-0.17578-0.28125-0.41406-0.28125-0.71875 0-0.30078 0.09375-0.53516 0.28125-0.70312 0.1875-0.17578 0.44531-0.26562 0.78125-0.26562 0.10156 0 0.20312 0.011719 0.29688 0.03125 0.09375 0.011719 0.1875 0.039063 0.28125 0.078125z"/>
  </symbol>
 </defs>
 <g>
  <path d="m681.08 473.44c0 31.848-17.383 61.527-45.348 77.453l-12.852 7.2383v-67.316l-30.23-17.371-30.988 17.371v66.598l-12.09-5.793c-31.746-15.926-51.395-45.602-51.395-78.176 0-31.125 15.871-57.906 40.059-73.832l-0.003906-234.53c-24.941-15.926-41.57-42.707-41.57-73.832 0-36.191 26.453-64.422 49.125-77.453l12.848-7.2383v67.316l30.234 17.371 30.984-17.371 0.003906-66.594 12.852 5.7891c30.23 15.199 48.371 44.879 48.371 78.176 0 30.402-16.629 57.184-40.812 73.109v235.98c24.184 15.922 40.812 42.703 40.812 73.105zm-198.24-5.168h-335.87v64.832c0 13.348-10.672 23.836-24.262 23.836h-49.488c-13.586 0-24.262-10.488-24.262-23.836v-64.832c-16.496 0-30.082-13.352-30.082-30.512v-132.53c0-29.559 18.438-55.301 43.668-66.742-20.379-1.9062-36.875-18.117-36.875-39.094 0-21.93 17.469-39.094 39.789-39.094h37.844l21.348-70.555c9.7031-32.418 44.637-58.16 79.574-60.066h298c-5.3906 7.1875-10.094 15.172-13.68 23.836h-280.44c-25.23 0-52.402 20.023-59.195 42.906l-31.055 106.79h404.98v185.62c-24.363 19.457-39 48.348-39.996 79.449zm-318.41-137.3c0-21.93-17.469-39.09-39.785-39.09-22.32 0-39.785 17.16-39.785 39.09s17.469 39.094 39.785 39.094c21.348 0 39.785-17.164 39.785-39.094zm300.82 30.512h-211.55v52.441h211.55z"/>
  <use x="12.121094" y="570.136719" xlink:href="#v"/>
  <use x="14.601562" y="570.136719" xlink:href="#c"/>
  <use x="16.265625" y="570.136719" xlink:href="#a"/>
  <use x="18.558594" y="570.136719" xlink:href="#m"/>
  <use x="20.839844" y="570.136719" xlink:href="#b"/>
  <use x="22.453125" y="570.136719" xlink:href="#a"/>
  <use x="24.746094" y="570.136719" xlink:href="#l"/>
  <use x="28.339844" y="570.136719" xlink:href="#k"/>
  <use x="30.757812" y="570.136719" xlink:href="#j"/>
  <use x="34.136719" y="570.136719" xlink:href="#i"/>
  <use x="37.011719" y="570.136719" xlink:href="#u"/>
  <use x="39.429688" y="570.136719" xlink:href="#b"/>
  <use x="41.042969" y="570.136719" xlink:href="#h"/>
  <use x="42.203125" y="570.136719" xlink:href="#e"/>
  <use x="45.722656" y="570.136719" xlink:href="#g"/>
  <use x="48.128906" y="570.136719" xlink:href="#t"/>
  <use x="51.316406" y="570.136719" xlink:href="#f"/>
  <use x="53.792969" y="570.136719" xlink:href="#c"/>
  <use x="55.457031" y="570.136719" xlink:href="#h"/>
  <use x="56.617188" y="570.136719" xlink:href="#e"/>
  <use x="60.136719" y="570.136719" xlink:href="#a"/>
  <use x="12.121094" y="573.515625" xlink:href="#s"/>
  <use x="13.589844" y="573.515625" xlink:href="#c"/>
  <use x="15.257812" y="573.515625" xlink:href="#d"/>
  <use x="17.578125" y="573.515625" xlink:href="#e"/>
  <use x="22.277344" y="573.515625" xlink:href="#b"/>
  <use x="23.890625" y="573.515625" xlink:href="#r"/>
  <use x="26.296875" y="573.515625" xlink:href="#a"/>
  <use x="29.765625" y="573.515625" xlink:href="#q"/>
  <use x="32.589844" y="573.515625" xlink:href="#d"/>
  <use x="34.914062" y="573.515625" xlink:href="#g"/>
  <use x="37.320312" y="573.515625" xlink:href="#p"/>
  <use x="40.898438" y="573.515625" xlink:href="#f"/>
  <use x="43.375" y="573.515625" xlink:href="#c"/>
  <use x="45.042969" y="573.515625" xlink:href="#d"/>
  <use x="47.363281" y="573.515625" xlink:href="#o"/>
  <use x="48.523438" y="573.515625" xlink:href="#a"/>
  <use x="50.8125" y="573.515625" xlink:href="#n"/>
  <use x="52.816406" y="573.515625" xlink:href="#b"/>
 </g>
</svg>
